HIERARCHY
ROOT Hips
{
  OFFSET -102.467 93.6631 130.069
  CHANNELS 6 Xposition Yposition Zposition Zrotation Xrotation Yrotation
  JOINT LeftUpLeg
  {
    OFFSET 8.64259 1.95398 -2.38835
    CHANNELS 3 Zrotation Xrotation Yrotation
    JOINT LeftLeg
    {
      OFFSET 43.7702 0 0
      CHANNELS 3 Zrotation Xrotation Yrotation
      JOINT LeftFoot
      {
        OFFSET 40.6238 0 0
        CHANNELS 3 Zrotation Xrotation Yrotation
        JOINT LeftToeBase
        {
          OFFSET 12.7242 0 0
          CHANNELS 3 Zrotation Xrotation Yrotation
          End Site
          {
            OFFSET 0 0 0
          }
        }
      }
    }
  }
  JOINT RightUpLeg
  {
    OFFSET -8.2249 1.95398 -2.59336
    CHANNELS 3 Zrotation Xrotation Yrotation
    JOINT RightLeg
    {
      OFFSET 43.5653 0 0
      CHANNELS 3 Zrotation Xrotation Yrotation
      JOINT RightFoot
      {
        OFFSET 40.6238 0 0
        CHANNELS 3 Zrotation Xrotation Yrotation
        JOINT RightToeBase
        {
          OFFSET 12.7242 0 0
          CHANNELS 3 Zrotation Xrotation Yrotation
          End Site
          {
            OFFSET 0 0 0
          }
        }
      }
    }
  }
  JOINT Spine
  {
    OFFSET 0.165834 0.87714 6.61349
    CHANNELS 3 Zrotation Xrotation Yrotation
    JOINT Spine1
    {
      OFFSET 7.38963 1.71661e-005 0
      CHANNELS 3 Zrotation Xrotation Yrotation
      JOINT Spine2
      {
        OFFSET 11.9445 1.14441e-005 0
        CHANNELS 3 Zrotation Xrotation Yrotation
        JOINT Spine3
        {
          OFFSET 14.7254 4.19617e-005 0
          CHANNELS 3 Zrotation Xrotation Yrotation
          JOINT Spine4
          {
            OFFSET 10.9679 0 0
            CHANNELS 3 Zrotation Xrotation Yrotation
            JOINT RightShoulder
            {
              OFFSET 2.46616 -1.6653 3.69651
              CHANNELS 3 Zrotation Xrotation Yrotation
              JOINT RightArm
              {
                OFFSET 13.0012 0 0
                CHANNELS 3 Zrotation Xrotation Yrotation
                JOINT RightForeArm
                {
                  OFFSET 28.7848 1.52588e-005 0
                  CHANNELS 3 Zrotation Xrotation Yrotation
                  JOINT RightHand
                  {
                    OFFSET 26.5688 1.52588e-005 0
                    CHANNELS 3 Zrotation Xrotation Yrotation
                    End Site
                    {
                      OFFSET 0 0 0
                    }
                  }
                }
              }
            }
            JOINT LeftShoulder
            {
              OFFSET 2.38034 -1.29275 -3.7523
              CHANNELS 3 Zrotation Xrotation Yrotation
              JOINT LeftArm
              {
                OFFSET 16.3182 6.10351e-005 0
                CHANNELS 3 Zrotation Xrotation Yrotation
                JOINT LeftForeArm
                {
                  OFFSET 27.0901 0 0
                  CHANNELS 3 Zrotation Xrotation Yrotation
                  JOINT LeftHand
                  {
                    OFFSET 24.5451 1.52588e-005 0
                    CHANNELS 3 Zrotation Xrotation Yrotation
                    End Site
                    {
                      OFFSET 0 0 0
                    }
                  }
                }
              }
            }
            JOINT Neck
            {
              OFFSET 5.0226 -0.0266342 0
              CHANNELS 3 Zrotation Xrotation Yrotation
              JOINT Head
              {
                OFFSET 6.69363 2.86102e-005 0
                CHANNELS 3 Zrotation Xrotation Yrotation
                End Site
                {
                  OFFSET 0 0 0
                }
              }
            }
          }
        }
      }
    }
  }
}
MOTION
Frames:	17
Frame Time:	0.0416667
-183.204 96.6521 183.72 97.7542 53.0969 85.4894 -177.159 2.13149 88.9942 -11.6925 20.9362 3.13581 56.355 2.28425 10.3738 37.4417 -0.417783 4.14801 175.447 4.44374 89.722 -20.214 7.78758 -0.31863 64.6934 7.9384 17.6021 21.1339 1.91165 1.30633 -0.620606 6.98511 -90.3696 12.9006 -1.40942 -0.568958 1.23031 -1.43312 -0.506351 -21.3084 -1.17327 -0.96627 -1.29577 -1.17328 -0.966278 100.225 -56.9407 -84.9561 27.3007 -16.9783 4.3593 17.1715 10.368 -79.5201 -10.3545 -0.358352 -1.20656 -87.448 -56.239 83.3078 -21.7188 24.2081 -6.17539 -16.3393 -16.6646 -50.1332 11.2351 -2.27986 -22.5681 2.4082 -0.900878 -2.80047 -28.6435 -1.42895 4.4999 
-183.175 96.6728 183.658 97.4304 52.9562 85.8768 -177.093 2.30969 89.1065 -11.7743 20.8713 3.15134 55.866 1.91466 10.4765 38.6714 -0.706768 2.89907 175.516 4.52279 89.8446 -20.0771 7.80995 -0.323976 64.5102 8.02066 17.7038 21.4096 1.83825 1.17137 -0.596709 6.9662 -90.387 12.9382 -1.37029 -0.60769 1.26782 -1.39573 -0.546786 -21.2704 -1.12432 -0.991452 -1.25775 -1.12433 -0.991457 100.331 -56.8982 -84.8058 27.454 -17.706 4.36056 13.8668 10.1134 -79.0709 -9.9094 -0.433576 0.0320633 -87.4127 -56.2628 83.361 -21.6969 24.1448 -6.34753 -16.4687 -16.8806 -50.0634 11.7587 -2.36829 -22.5931 2.15967 -0.800696 -2.92942 -28.1011 -1.33199 4.68336 
-183.097 96.683 183.495 96.6615 52.5555 86.8067 -176.878 2.76176 89.398 -12.0907 20.7715 3.11279 56.1877 2.07069 10.626 38.5707 -0.677857 3.03315 175.623 4.58868 90.11 -19.495 7.32268 -0.24447 64.4124 7.80053 17.4696 21.351 1.85276 1.18786 -0.540906 6.93193 -90.4172 13.0063 -1.2742 -0.67897 1.33584 -1.30283 -0.62224 -21.2013 -1.01123 -1.03054 -1.18868 -1.01123 -1.03054 100.354 -57.0152 -84.7686 27.1025 -16.8984 4.221 10.1532 10.0384 -78.3348 -4.50964 -0.250589 1.32989 -87.3412 -56.1015 83.4373 -21.7631 24.208 -6.31356 -16.4882 -17.0369 -50.6138 13.3801 -2.54423 -21.9746 2.4776 -0.846715 -3.05299 -28.409 -1.38916 4.80662 
-182.984 96.714 183.302 95.7567 51.9874 88.0482 -176.529 3.3195 89.8769 -12.5036 20.5011 3.08274 56.5346 2.18519 10.778 38.4874 -0.686994 2.92358 175.789 4.64445 90.5592 -18.7534 7.10262 -0.139832 64.0629 7.77244 17.5988 21.2487 1.87779 1.21394 -0.466228 6.87661 -90.4788 13.1163 -1.1558 -0.815047 1.44562 -1.19056 -0.763393 -21.09 -0.85743 -1.12472 -1.07737 -0.857412 -1.12472 100.257 -57.0306 -84.907 27.0584 -16.9119 4.26829 9.89142 10.0302 -78.3742 -4.22019 -0.233791 1.45923 -87.3299 -56.1616 83.4623 -21.716 24.2608 -6.22494 -16.9487 -17.5181 -51.4393 16.2429 -2.83753 -21.0108 2.72545 -0.845317 -2.89583 -28.7375 -1.3445 4.45741 
-182.84 96.7118 183.072 94.5694 51.2353 89.5511 -176.025 3.89071 90.5034 -12.4785 20.0956 2.90537 56.9025 2.18991 10.4199 38.6529 -0.6958 2.96569 176.041 4.91201 91.0894 -18.1077 6.7497 -0.0718554 63.8506 7.62736 17.5672 21.302 1.89634 1.54197 -0.364834 6.80138 -90.537 13.2663 -0.982967 -0.951326 1.59539 -1.02386 -0.907166 -20.9385 -0.651629 -1.20274 -0.925857 -0.651638 -1.20276 100.324 -56.9667 -84.8139 27.2855 -17.3499 4.23723 11.3293 10.2426 -78.4566 -5.68241 -0.311302 1.32222 -87.3605 -55.9904 83.3934 -21.949 24.262 -6.04198 -17.7127 -18.1481 -52.6805 20.6942 -3.28969 -19.9555 2.41666 -0.859767 -3.13257 -28.2171 -1.38099 4.79949 
-182.682 96.7417 182.889 93.6482 50.4638 90.876 -175.564 4.59848 91.1034 -13.1331 19.824 2.80784 57.4784 2.49878 10.8195 38.1416 -0.688366 2.70001 176.231 5.06784 91.6379 -17.3942 6.03128 0.0950884 63.1484 7.49751 17.3082 21.7724 1.78361 1.43901 -0.252479 6.74556 -90.6065 13.3777 -0.794068 -1.11334 1.70654 -0.842297 -1.07733 -20.8255 -0.422794 -1.3005 -0.812862 -0.422792 -1.3005 100.34 -57.0751 -84.7874 27.1762 -17.1029 4.28173 11.0588 10.177 -78.3799 -5.21502 -0.273156 1.02864 -87.4566 -56.1542 83.2829 -21.7626 24.2221 -6.10522 -18.2072 -18.5692 -53.7327 25.6642 -3.76725 -19.0186 2.35942 -0.861014 -2.86807 -28.077 -1.32157 4.33841 
-182.533 96.7248 182.778 92.6795 49.6029 92.1846 -175.012 5.25604 91.7775 -13.3857 19.8053 2.56962 57.6601 2.51106 10.9928 38.6097 -0.717031 2.80316 176.529 5.54767 92.2131 -17.2064 6.10286 0.0996785 63.0352 7.49427 17.8466 21.4701 1.8554 1.49656 -0.145783 6.68298 -90.669 13.5028 -0.613282 -1.26102 1.83142 -0.668182 -1.23282 -20.699 -0.206005 -1.38701 -0.686398 -0.205989 -1.38702 100.289 -57.06 -84.8609 27.189 -16.9878 4.34972 11.2022 10.1524 -78.5246 -5.28667 -0.283246 1.17956 -87.3507 -56.4085 83.47 -21.5908 24.0074 -6.0756 -18.5073 -18.7088 -54.9093 31.4906 -4.2823 -18.0952 2.402 -0.774008 -2.53688 -28.155 -1.20415 3.93499 
-182.418 96.7344 182.796 92.1087 48.7451 93.093 -174.45 5.85396 92.3886 -13.8897 19.4777 2.32687 58.2348 2.7597 11.0038 38.0483 -0.673801 2.74658 176.987 5.7181 92.8508 -16.6421 5.59547 -0.0331459 62.5818 7.30291 17.5652 21.983 1.73435 1.40899 -0.0312722 6.65767 -90.6893 13.5543 -0.396098 -1.32947 1.88278 -0.454229 -1.31075 -20.6469 0.0217426 -1.38703 -0.634281 0.0217169 -1.38704 100.316 -57.3512 -84.813 27.2212 -16.7773 4.40537 11.0961 9.99289 -78.7287 -5.76396 -0.307452 1.13793 -87.1961 -55.9439 83.6183 -22.0109 23.8241 -6.14887 -18.4393 -18.6904 -55.7493 37.7188 -4.94978 -17.6281 2.3506 -0.910572 -3.75224 -27.9046 -1.42375 5.28927 
-182.345 96.7041 182.955 91.5841 47.8372 93.7032 -173.854 6.24222 92.8686 -13.7139 19.3607 1.91053 58.3749 2.79442 10.9786 38.0557 -0.664704 2.8083 177.415 6.15369 93.2886 -16.4645 5.18626 -0.236225 62.4939 7.12545 17.402 22.0222 1.73912 1.54362 0.0902073 6.65784 -90.7042 13.5551 -0.162573 -1.38946 1.88345 -0.223556 -1.38098 -20.6459 0.262477 -1.3741 -0.633212 0.262494 -1.37409 100.404 -57.4845 -84.6841 27.112 -16.7213 4.28294 10.5768 9.97509 -78.5184 -4.98454 -0.254946 0.871862 -87.2417 -56.1047 83.578 -21.805 23.6789 -6.2584 -17.9058 -18.3421 -56.4589 43.2951 -5.48366 -17.1359 2.80279 -1.0128 -3.48747 -27.9658 -1.44502 4.76398 
-182.378 96.7199 183.247 91.178 46.955 93.8367 -173.48 6.53309 92.9288 -13.418 19.1439 1.48555 58.037 2.58349 11.275 38.1605 -0.680398 2.76679 177.781 6.83404 93.3608 -16.7359 5.18237 -0.591725 62.6122 7.22146 17.9454 21.2298 1.9125 1.54412 0.154652 6.69945 -90.6647 13.473 -0.0151086 -1.32927 1.80137 -0.0736012 -1.32731 -20.7287 0.385058 -1.27237 -0.716007 0.385046 -1.27237 99.993 -57.7119 -85.2616 27.0036 -16.8707 4.16075 10.1763 9.96236 -78.5466 -5.13207 -0.26608 0.949901 -87.0322 -56.2052 83.8878 -21.5829 23.2411 -6.08774 -16.9275 -17.4794 -57.203 47.9584 -5.07416 -14.9428 3.53578 -0.869935 -3.23544 -28.9745 -1.29811 4.45253 
-182.612 96.7239 183.283 91.2781 47.0922 93.5614 -173.799 6.47039 92.5783 -13.3523 18.8717 1.60612 58.012 2.55861 11.2103 37.814 -0.65684 2.70817 177.561 6.89948 92.9841 -16.7961 5.02212 -0.50234 62.3817 7.4096 18.1392 21.2931 1.8689 1.2233 0.170457 6.82571 -90.6411 13.2208 0.029329 -1.28711 1.54919 -0.0273365 -1.28715 -20.9813 0.41476 -1.21881 -0.968591 0.414771 -1.21881 99.788 -57.748 -85.5514 26.7109 -16.8116 4.2937 8.76686 9.92896 -78.0004 -4.52436 -0.171608 -0.886155 -87.3629 -56.5383 83.4723 -21.0359 22.4331 -5.84709 -16.6921 -16.968 -58.1872 47.8064 -4.89032 -14.5946 2.83948 -1.08628 -3.32412 -27.7011 -1.53279 4.76701 
-182.996 96.7236 183.612 91.9719 47.3454 92.5133 -174.173 5.79226 92.0066 -12.3554 18.7628 1.66501 57.367 2.18571 10.9562 37.7754 -0.631363 2.86041 177.284 7.08873 92.4145 -17.4958 4.5469 -0.482288 62.5429 7.2926 17.5776 21.5398 1.82688 1.35881 0.178747 7.12375 -90.5663 12.6255 0.0849623 -1.14137 0.954097 0.034667 -1.14401 -21.5775 0.424042 -1.06308 -1.56484 0.424055 -1.06308 99.9242 -57.6165 -85.3625 26.2663 -17.2638 3.4066 8.42484 10.0808 -77.4446 -4.2137 -0.105229 -2.61244 -87.4332 -56.1637 83.3171 -20.8554 21.1831 -7.29473 -16.9241 -17.0066 -58.0958 44.9984 -4.8655 -15.2445 2.94773 -1.06302 -3.60478 -26.7817 -1.52118 5.27352 
-183.737 96.7065 184.257 93.0611 47.7522 90.6782 -175.055 5.07672 90.7969 -11.3782 18.3197 1.83251 56.4501 1.78754 10.9309 37.279 -0.606773 2.71099 176.781 7.6262 91.236 -18.8777 4.20667 -0.484337 62.7695 7.59188 17.7986 21.0534 1.87554 0.709292 0.0973359 7.59831 -90.4667 11.6762 -0.0252582 -0.927515 0.00494299 -0.0660575 -0.925516 -22.5277 0.254664 -0.892236 -2.51503 0.254656 -0.892228 99.0135 -57.1432 -86.6833 25.4247 -17.7218 1.05055 8.37617 10.2918 -76.3655 -4.53367 -0.105405 -2.81109 -87.3507 -56.5059 83.4843 -19.6153 20.1404 -10.2013 -17.5211 -16.9684 -57.6873 42.5448 -4.06971 -13.978 3.58242 -0.815926 -2.94281 -26.9755 -1.25904 4.68909 
-184.839 96.5991 185.372 95.5626 47.8466 87.9694 -175.672 4.16841 89.9199 -11.0557 17.7436 1.95118 55.6025 1.28085 10.5402 36.872 -0.604026 2.45568 176.36 7.91139 90.2553 -20.7066 3.7061 -0.516921 62.6886 7.72073 17.725 21.7749 1.73931 0.979982 0.0489656 8.29685 -90.3706 10.2794 -0.0717335 -0.729426 -1.39177 -0.103788 -0.725559 -23.9253 0.150785 -0.717267 -3.91268 0.150803 -0.717265 97.4062 -56.72 -89.0147 24.1704 -17.2777 -2.19744 8.44831 10.4049 -74.5647 -4.6756 -0.0799102 -3.63691 -88.4898 -56.558 81.8962 -17.9162 19.0026 -13.9011 -19.5394 -17.9707 -56.2656 38.2953 -3.00995 -12.159 1.77841 -0.215944 -2.64532 -24.8303 -0.790698 5.36183 
-186.352 96.4009 186.624 95.278 48.6558 87.453 -176.824 5.88009 88.8523 -11.4872 17.4583 2.11277 54.8046 0.917325 10.5894 36.0069 -0.523902 2.44177 175.732 10.189 89.2553 -22.222 2.86717 -0.00381396 62.3217 7.37026 16.3718 23.7852 1.35367 1.54794 -0.0253895 9.03797 -90.3208 8.79695 -0.193269 -0.623156 -2.87413 -0.220503 -0.614047 -25.4081 0.00294136 -0.652431 -5.39541 0.00295099 -0.652423 96.6628 -56.0824 -90.141 22.2608 -16.8223 -7.60878 9.43669 11.1234 -72.026 -1.11818 -0.0332552 -3.55818 -89.738 -55.94 80.0385 -15.7899 17.1172 -19.8487 -17.8855 -17.1327 -52.5631 26.8247 -1.19622 -8.69634 1.17219 0.166476 -3.00408 -23.2294 -0.570659 7.03143 
-188.03 96.0091 188.082 91.6416 48.4046 90.2146 -177.601 10.6046 88.5148 -13.1559 16.312 2.15614 54.6379 0.437985 10.1447 35.0176 -0.581746 1.17628 175.867 14.6831 89.13 -23.2498 2.52089 0.388489 61.7037 7.14194 15.8589 23.2085 1.52337 1.94627 0.0121858 9.71109 -90.3393 7.45081 -0.122482 -0.662785 -4.22029 -0.151524 -0.656751 -26.7541 0.0823571 -0.668953 -6.74143 0.0823792 -0.668943 95.6466 -55.0099 -91.7295 20.5299 -15.7676 -14.0317 10.5387 11.685 -69.4626 -0.485965 -0.0263505 -4.54257 -91.3262 -55.0137 77.6103 -13.441 15.0403 -25.3438 -14.4801 -15.1619 -49.2886 8.11982 -0.796626 -12.4807 1.17907 0.181474 -3.26761 -21.7926 -0.542967 7.71288 
-189.835 95.5513 189.602 88.4674 48.4197 92.4589 -177.985 14.6811 88.3161 -13.8248 16.765 1.77564 53.6473 -0.351851 10.4048 34.9087 -0.598002 0.947536 175.47 18.7104 88.7193 -23.8074 1.1948 1.17819 60.988 6.76463 14.6246 21.0931 1.97796 1.94093 0.00604495 10.5117 -90.4009 5.84918 -0.155933 -0.783856 -5.82198 -0.19028 -0.776237 -28.3553 0.0868541 -0.794486 -8.3426 0.0868433 -0.794483 93.8097 -53.2409 -94.6751 19.1525 -13.6995 -20.3922 10.8401 11.548 -67.5647 -2.31559 -0.0436859 -3.99798 -92.2534 -53.6921 75.9951 -9.91541 15.1834 -32.2291 -13.5319 -13.5537 -47.5195 0.0130354 -0.319399 -15.3297 -0.877716 0.275096 -3.01477 -16.0324 -0.27846 9.01408 
